<?xml version="1.0" standalone="no"?>
<!DOCTYPE svg PUBLIC "-//W3C//DTD SVG 20010904//EN"
 "http://www.w3.org/TR/2001/REC-SVG-20010904/DTD/svg10.dtd">
<svg version="1.0" xmlns="http://www.w3.org/2000/svg"
 width="759.000000pt" height="764.000000pt" viewBox="0 0 759.000000 764.000000"
 preserveAspectRatio="xMidYMid meet">

<g transform="translate(0.000000,764.000000) scale(0.100000,-0.100000)"
fill="#000000" stroke="none">
<path d="M3570 7394 c-19 -2 -84 -9 -145 -14 -785 -75 -1544 -437 -2115 -1010
-549 -550 -889 -1245 -995 -2030 -22 -164 -30 -533 -16 -715 78 -962 546
-1849 1296 -2450 532 -428 1144 -678 1845 -756 148 -17 540 -16 695 0 820 87
1553 436 2130 1016 573 574 925 1322 1005 2135 14 148 14 512 0 660 -160 1631
-1408 2924 -3031 3140 -146 20 -576 35 -669 24z m200 -1145 l0 -1021 -192 7
c-106 3 -236 6 -288 5 -52 0 -434 -3 -847 -5 l-753 -5 0 74 c0 175 60 473 133
662 211 546 645 988 1177 1197 158 62 410 102 663 106 l107 1 0 -1021z m453
996 c367 -48 704 -151 1042 -315 248 -121 410 -225 650 -414 101 -80 401 -373
444 -434 l23 -33 -558 6 c-675 7 -688 7 -1431 0 l-593 -6 0 612 0 612 153 -6
c83 -3 205 -13 270 -22z m-1543 -159 c0 -2 -24 -19 -52 -36 -94 -58 -239 -172
-336 -264 -280 -267 -479 -594 -587 -966 l-34 -115 -1 412 0 412 93 69 c243
183 493 323 792 443 132 53 125 51 125 45z m-1050 -1656 c-7 -85 -9 -200 -6
-255 4 -55 9 -362 12 -683 l5 -582 -613 2 -613 3 3 105 c27 898 434 1777 1102
2377 l115 104 3 -458 c2 -291 -1 -515 -8 -613z m3020 561 c-390 -145 -686
-447 -820 -834 l-28 -82 -1 473 -1 472 463 0 462 -1 -75 -28z m1806 -28 c127
-160 308 -460 399 -663 44 -97 115 -275 115 -287 0 -3 -26 35 -58 83 -297 450
-745 770 -1272 908 -50 14 -21 15 357 15 l413 1 46 -57z m-1366 -599 l0 -636
-107 7 c-60 4 -142 6 -183 6 -41 -1 -279 -4 -528 -7 l-453 -4 6 67 c44 481
304 870 720 1075 156 76 340 125 483 127 l62 1 0 -636z m287 621 c525 -69 993
-326 1338 -736 186 -222 351 -536 389 -743 26 -137 45 -325 48 -461 l3 -130
-1018 -3 -1019 -2 7 212 c3 117 6 245 5 283 0 39 -3 413 -6 833 l-4 762 69 0
c39 0 123 -7 188 -15z m-2423 -870 c0 -49 -6 -116 -13 -148 -10 -48 -10 -67 3
-118 13 -50 16 -134 16 -485 l0 -424 -42 0 c-62 0 -221 26 -305 50 -241 67
-483 228 -642 426 -160 199 -262 455 -278 697 l-6 97 634 -2 634 -3 -1 -90z
m86 40 l-55 -56 -3 42 c-5 63 0 69 60 69 l52 0 -54 -55z m730 -82 l0 -138 -25
44 c-51 89 -112 148 -221 218 -15 9 7 12 114 12 l132 1 0 -137z m-500 -20 c0
-107 -3 -134 -12 -125 -14 14 -88 16 -88 2 0 -6 -35 -10 -86 -10 l-86 0 7 38
c9 53 56 132 98 166 33 26 123 65 155 66 9 0 12 -34 12 -137z m135 115 c109
-27 236 -130 290 -237 21 -43 54 -157 55 -193 0 -5 -100 -8 -223 -8 l-222 0
-3 230 -3 230 33 -6 c18 -3 51 -11 73 -16z m-255 -342 c0 -36 -4 -67 -8 -70
-4 -2 -26 4 -48 14 -41 18 -75 56 -88 98 -7 21 -6 22 68 22 l76 0 0 -64z m55
45 c7 -12 -12 -24 -25 -16 -11 7 -4 25 10 25 5 0 11 -4 15 -9z m-1445 -246
c151 -312 433 -560 773 -680 42 -15 77 -29 77 -31 0 -2 -211 -4 -470 -4 l-470
0 0 468 1 467 20 -60 c11 -33 42 -105 69 -160z m1480 190 c0 -8 -9 -24 -20
-35 -31 -31 -50 -26 -50 15 0 33 2 35 35 35 24 0 35 -5 35 -15z m-230 -70 c10
-13 9 -15 -9 -15 -12 0 -21 6 -21 15 0 8 4 15 9 15 5 0 14 -7 21 -15z m740
-49 c0 -2 -5 -38 -10 -80 -50 -359 -337 -635 -697 -672 l-63 -7 0 380 0 379
385 2 c212 2 385 1 385 -2z m835 -58 c-4 -35 -7 -83 -6 -108 1 -25 4 -168 7
-319 l5 -274 -63 7 c-194 22 -356 102 -489 243 -129 136 -186 264 -213 476
l-5 37 386 0 386 0 -8 -62z m55 58 c0 -3 -4 -8 -10 -11 -5 -3 -10 -1 -10 4 0
6 5 11 10 11 6 0 10 -2 10 -4z m450 -48 l-1 -53 -23 29 c-13 15 -37 39 -52 52
l-29 23 53 1 52 0 0 -52z m-161 2 c68 -34 125 -113 137 -189 l7 -41 -132 0
c-127 0 -131 1 -121 19 16 30 13 81 -5 81 -12 0 -15 15 -15 78 0 43 2 81 5 84
9 9 82 -10 124 -32z m-149 -40 l0 -70 -70 0 c-79 0 -86 9 -50 68 21 35 74 72
103 72 15 0 17 -10 17 -70z m-70 -136 c0 -38 -6 -38 -47 -1 -32 28 -29 37 12
37 33 0 35 -2 35 -36z m50 21 c0 -8 -4 -15 -10 -15 -5 0 -10 7 -10 15 0 8 5
15 10 15 6 0 10 -7 10 -15z m-875 -221 c90 -141 200 -240 355 -316 l95 -48
-267 0 -268 0 0 268 1 267 23 -56 c13 -31 40 -82 61 -115z m-118 -361 c-2 -2
-121 -2 -263 -1 l-259 3 79 38 c191 91 344 247 418 424 l23 56 3 -258 c1 -142
1 -260 -1 -262z m1299 427 c-24 -183 -164 -336 -353 -385 -102 -27 -93 -46
-93 208 l0 222 226 3 227 3 -7 -51z m21 -427 c-2 -2 -65 -2 -138 -1 l-134 3
41 22 c68 36 147 108 189 171 l40 60 3 -125 c1 -69 1 -127 -1 -130z m-2632
-198 c0 -95 -6 -203 -14 -245 -10 -62 -10 -85 0 -130 10 -41 14 -240 16 -797
l3 -743 -60 0 c-164 0 -419 47 -607 111 -574 195 -1043 637 -1266 1194 -61
151 -90 322 -107 620 -4 83 -6 153 -3 158 2 4 462 6 1021 5 l1017 -3 0 -170z
m295 171 c0 -2 -24 -18 -54 -35 -65 -36 -146 -115 -182 -176 -14 -25 -28 -45
-30 -45 -2 0 -4 59 -4 130 l0 130 135 0 c74 0 135 -2 135 -4z m1020 -258 l0
-262 -35 72 c-90 188 -225 321 -416 412 l-84 39 268 1 267 0 0 -262z m460 212
c-178 -93 -295 -211 -381 -385 l-49 -100 0 268 0 267 263 0 262 -1 -95 -49z
m1679 -422 l0 -473 -23 65 c-141 402 -450 711 -851 851 l-80 27 478 1 477 1
-1 -472z m1247 340 c-45 -843 -358 -1577 -932 -2187 -85 -91 -272 -261 -286
-261 -12 0 -3 987 10 1137 8 88 8 149 0 220 -11 99 -23 1185 -14 1210 4 11
114 13 617 13 l612 0 -7 -132z m-4196 -124 l0 -226 -47 7 c-27 5 -55 7 -63 6
-8 -1 -90 -4 -182 -7 -192 -6 -180 -14 -153 89 21 83 60 153 116 212 74 78
205 142 297 144 l32 1 0 -226z m229 194 c306 -94 516 -347 555 -670 l7 -58
-387 0 -386 0 7 58 c4 31 7 82 6 112 -1 30 -4 176 -7 324 l-5 269 72 -7 c39
-4 101 -17 138 -28z m1401 -349 l0 -382 -72 8 c-40 4 -86 7 -103 6 -16 -1
-155 -4 -307 -7 l-278 -5 0 41 c0 139 89 344 200 463 39 42 92 92 118 111 109
80 282 144 395 145 l47 1 0 -381z m234 366 c468 -82 852 -416 1000 -869 28
-85 51 -203 61 -308 l6 -68 -637 0 -637 0 8 118 c4 64 6 142 6 172 -1 30 -4
261 -7 513 l-5 457 59 0 c33 0 98 -7 146 -15z m-2069 -472 c-17 -46 -18 -76
-2 -85 14 -7 17 -25 17 -88 l0 -80 -30 0 c-102 0 -217 112 -236 228 l-7 42
133 0 c122 0 132 -1 125 -17z m150 -38 c34 -33 31 -45 -10 -45 -33 0 -35 2
-35 35 0 41 12 44 45 10z m-75 -30 c0 -8 -4 -15 -10 -15 -5 0 -10 7 -10 15 0
8 5 15 10 15 6 0 10 -7 10 -15z m100 -62 c0 -29 -37 -82 -72 -103 -59 -36 -68
-29 -68 50 l0 70 70 0 c60 0 70 -2 70 -17z m-357 -128 c20 -14 18 -15 -36 -15
l-57 0 0 57 0 57 36 -42 c19 -23 45 -49 57 -57z m387 0 c0 -8 -7 -15 -16 -15
-14 0 -14 3 -4 15 7 8 14 15 16 15 2 0 4 -7 4 -15z m-190 -56 c36 1 271 4 524
7 l458 5 -7 -73 c-28 -317 -143 -577 -347 -793 -150 -158 -326 -271 -528 -339
-110 -37 -261 -66 -342 -66 l-48 0 0 636 0 636 113 -7 c61 -3 141 -6 177 -6z
m1505 -21 c-5 -18 -8 -49 -7 -68 1 -19 5 -106 8 -192 l5 -158 -34 0 c-97 0
-244 78 -315 167 -47 60 -93 164 -99 227 l-6 56 228 0 228 0 -8 -32z m315 16
c0 -14 -3 -14 -15 -4 -8 7 -15 14 -15 16 0 2 7 4 15 4 8 0 15 -7 15 -16z
m-190 -44 c0 -39 -1 -40 -35 -40 -37 0 -44 13 -22 41 10 13 45 38 55 39 1 0 2
-18 2 -40z m100 11 c29 -21 70 -78 70 -97 0 -11 -18 -14 -70 -14 l-70 0 0 71
c0 68 1 70 23 64 12 -4 33 -15 47 -24z m-100 -81 c0 -5 -7 -10 -15 -10 -8 0
-15 5 -15 10 0 6 7 10 15 10 8 0 15 -4 15 -10z m-31 -80 c17 0 31 5 31 10 0 6
35 10 85 10 97 0 97 -1 69 -82 -30 -90 -139 -178 -221 -178 l-33 0 0 130 c0
126 1 130 19 120 11 -5 33 -10 50 -10z m-461 -143 c26 -27 69 -64 97 -83 l50
-34 -128 0 -127 0 0 138 0 137 31 -55 c16 -30 51 -77 77 -103z m-3274 29 c50
-85 179 -250 270 -344 174 -181 367 -325 582 -434 140 -71 219 -103 374 -149
l125 -38 -411 0 -412 -1 -80 108 c-154 207 -281 425 -380 652 -62 142 -104
250 -98 250 2 0 16 -20 30 -44z m3136 -496 l0 -470 -467 0 -468 1 60 20 c394
135 727 468 847 846 13 40 24 73 26 73 1 0 2 -211 2 -470z m820 400 l0 -50
-52 0 -51 0 49 50 c27 27 50 50 52 50 1 0 2 -22 2 -50z m-300 -90 c47 0 427 3
844 5 l759 5 -7 -102 c-56 -835 -561 -1534 -1330 -1838 -124 -49 -352 -85
-611 -97 l-145 -6 0 1022 0 1023 203 -7 c111 -3 240 -6 287 -5z m1583 -1308
c-180 -155 -556 -373 -828 -480 -149 -59 -157 -59 -70 -2 255 167 497 414 657
672 102 165 212 423 259 608 13 50 14 18 17 -355 l3 -410 -38 -33z m-3418 487
c61 0 381 3 713 6 l602 6 0 -612 0 -612 -145 6 c-468 22 -899 134 -1330 347
-369 182 -720 441 -970 718 -49 53 -100 110 -114 125 l-26 29 580 -7 c319 -3
630 -6 690 -6z"/>
</g>
</svg>
